<?xml version="1.0" encoding="UTF-8"?>
<svg width="18px" height="18px" viewBox="0 0 18 18" version="1.1" xmlns="http://www.w3.org/2000/svg" xmlns:xlink="http://www.w3.org/1999/xlink">
    <title>香港</title>
    <g id="页面-1" stroke="none" stroke-width="1" fill="none" fill-rule="evenodd">
        <g id="客户信息列表" transform="translate(-276.000000, -428.000000)" fill="#E04153" fill-rule="nonzero">
            <g id="编组-2备份-2" transform="translate(255.000000, 406.000000)">
                <g id="香港" transform="translate(21.000000, 22.000000)">
                    <path d="M9,0 C13.9705627,0 18,4.02943725 18,9 C18,13.9705627 13.9705627,18 9,18 C4.02943725,18 8.92958434e-13,13.9705627 8.92958434e-13,9 C8.92958434e-13,4.02943725 4.02943725,0 9,0 Z M9.09101194,9.38301934 L9.09101429,9.38400858 C9.49601476,9.4240087 9.91401603,9.59300921 10.2750149,9.87700876 C10.8300149,10.3310101 11.1780165,10.9920099 11.2130164,11.6890167 L11.1090164,11.7240187 C11.0702299,11.0409127 10.7412535,10.4069744 10.2050164,9.98201574 C9.81201649,9.64801516 9.31301513,9.47201574 8.86901403,9.47901535 C9.75301545,9.6390155 10.207015,10.6730162 9.7190158,11.5850178 C9.37201618,12.1770181 9.65001578,13.3960238 10.4490168,13.7100222 C11.144018,13.9900228 11.457018,14.5810229 11.1090182,15.3130243 C13.9890215,13.49903 12.7050206,8.90002464 9.09101194,9.38301934 Z M8.71001278,9.60300719 C8.865013,10.5180077 7.99801175,11.2960094 6.97401095,11.0970089 C6.28000995,10.9570088 5.2030128,11.6190095 5.16801471,12.4560105 C5.13301469,13.1870118 4.6460141,13.7100126 3.84801376,13.5710116 C6.51901296,15.8090084 10.5400137,13.0630102 8.8310137,9.73400129 C8.93130001,10.0922956 8.92505509,10.4858469 8.8336905,10.8705812 L8.78101407,11.0620094 C8.52967472,11.7262208 8.01400751,12.2563723 7.35701202,12.5260106 L7.322012,12.4560105 C7.94701351,12.21201 8.43401251,11.6890092 8.6770128,11.0620091 C8.86401262,10.5620093 8.88301284,10.0340075 8.71001278,9.60300719 Z M3.25700359,6.14900579 C1.99735155,9.30747421 5.64010902,12.2445215 8.27112775,9.84276502 L8.40400765,9.71601579 C8.05857006,9.9346365 7.66008268,10.0520645 7.25358039,10.0568806 L7.07900564,10.0520168 C6.37501322,10.0215953 5.71752906,9.69194427 5.27200745,9.14601629 L5.34200741,9.07601615 C5.78679601,9.59837536 6.42775144,9.913606 7.11300556,9.94701678 C7.58411705,9.97457243 8.05364798,9.84805375 8.40080299,9.61943287 L8.521,9.532 L8.41741166,9.58104319 C7.62139737,9.91470182 6.68766964,9.36174816 6.59201548,8.34400815 C6.52201544,7.68200816 5.58501451,6.84600562 4.75200553,7.05500626 C4.02200448,7.26500709 3.39600454,6.95000619 3.25700359,6.14900579 Z M8.72002027,9.0790091 L8.72101366,9.07900842 C8.86072813,8.73700752 9.0988918,8.43247691 9.41598197,8.184308 L9.58101365,8.06500797 C10.1751005,7.67488564 10.9044652,7.54885913 11.5950121,7.71700815 L11.5950121,7.82200822 C10.9350107,7.64700794 10.2050097,7.75200818 9.65000787,8.13500819 C9.21300815,8.42700931 8.89800778,8.81700859 8.76700665,9.22300926 C9.20100755,8.42800775 10.2990088,8.33600901 11.0390171,9.11100923 C11.491018,9.59901019 12.7420195,9.73800937 13.2630216,9.07600921 C13.7490222,8.48400891 14.4430232,8.37900762 15.0000237,8.93600895 C14.1570233,5.58900701 9.32302097,5.42400096 8.72002027,9.0790091 Z M8.36401559,9.2850067 C8.06658734,9.04586357 7.84556677,8.73031275 7.70032402,8.33772329 L7.63401449,8.13500555 C7.45456624,7.44735729 7.56787584,6.71609941 7.94701447,6.11499539 L8.01701451,6.14899539 C7.6670143,6.73599646 7.56701399,7.43899747 7.73901438,8.1009957 C7.87801462,8.58899666 8.15601545,9.00699617 8.50301507,9.2850067 C7.87801357,8.62299631 8.15601545,7.54299506 9.09301498,7.12499379 C9.71901493,6.84499327 10.2050155,5.69499232 9.75301633,4.96499127 C9.36207783,4.37624096 9.42993047,3.726845 10.012601,3.33238832 L10.134,3.257 L9.95971205,3.25036139 C6.64116442,3.20359096 5.11992945,7.64183622 8.36401559,9.2850067 Z" id="形状"></path>
                    <polygon id="路径" points="8.46801317 5.94000867 8.26001274 6.25400884 8.19001269 5.87100918 7.80801147 5.80100913 8.15601129 5.62700887 8.12101127 5.24400921 8.39901139 5.52300953 8.74601102 5.38300945 8.57301078 5.73200946 8.81601106 6.04500944 8.46801124 5.94100939"></polygon>
                    <polygon id="路径" points="12.3250098 7.96100321 12.60301 8.27500338 12.1860089 8.24000336 11.9770083 8.55400353 11.9070082 8.17100386 11.525007 8.0660038 11.8730068 7.89200354 11.8730068 7.50800368 12.151007 7.75200416 12.4980066 7.6120039 12.3250063 7.96200411"></polygon>
                    <polygon id="路径" points="11.3520085 12.2470121 11.5950088 12.5250122 11.2130076 12.4900122 11.0040069 12.8390122 10.9000069 12.4560126 10.5520071 12.3510125 10.8650071 12.1420119 10.8650071 11.7590122 11.1430072 12.0380125 11.491007 11.8980124 11.3510069 12.2470125"></polygon>
                    <polygon id="路径" points="7.14800168 12.2470121 6.97400142 12.5950119 7.2180019 12.9090121 6.83500223 12.8740121 6.62700179 13.1880122 6.55700175 12.8050126 6.17500053 12.7000125 6.52200015 12.5260123 6.48800015 12.1420124 6.76600028 12.3860129 7.1480015 12.2460128"></polygon>
                    <polygon id="路径" points="5.27199168 8.55299999 5.51499196 8.86700016 5.13299074 8.79700012 4.9249903 9.14600013 4.85499026 8.76200027 4.47298903 8.65800023 4.81998866 8.48299995 4.78498863 8.06499868 5.09798861 8.3449992 5.44598843 8.20499894 5.27198817 8.55299876"></polygon>
                </g>
            </g>
        </g>
    </g>
</svg>