<?xml version="1.0" encoding="UTF-8"?>
<svg width="16px" height="16px" viewBox="0 0 16 16" version="1.1" xmlns="http://www.w3.org/2000/svg" xmlns:xlink="http://www.w3.org/1999/xlink">
    <!-- Generator: Sketch 59 (86127) - https://sketch.com -->
    <title>类型</title>
    <desc>Created with Sketch.</desc>
    <g id="页面-1" stroke="none" stroke-width="1" fill="none" fill-rule="evenodd">
        <g id="7_报表中心-大类资产明细管理-暂无数据" transform="translate(-266.000000, -165.000000)" fill="#3D7FFF" fill-rule="nonzero">
            <g id="类型" transform="translate(266.000000, 165.000000)">
                <path d="M0.00533707865,12.2356742 C0.00533707865,14.2794944 1.66264045,15.9367978 3.70646067,15.9367978 C5.7502809,15.9367978 7.40758427,14.2794944 7.40758427,12.2356742 L7.40758427,8.53455056 L3.70533708,8.53455056 C1.66151685,8.53455056 0.00533707865,10.1918539 0.00533707865,12.2356742 L0.00533707865,12.2356742 Z M6.06376404,12.2356742 C6.06376404,13.5367978 5.00533708,14.5941011 3.70533708,14.5941011 C2.40533708,14.5941011 1.34691011,13.5356742 1.34691011,12.2356742 C1.34691011,10.9356742 2.40533708,9.87724719 3.70533708,9.87724719 L6.06376404,9.87724719 L6.06376404,12.2356742 Z M15.9356742,3.70533708 C15.9356742,1.66151685 14.2783708,0.00421348315 12.2345506,0.00421348315 C10.1907303,0.00421348315 8.53342697,1.66151685 8.53342697,3.70533708 L8.53342697,7.40646067 L12.2345506,7.40646067 C14.2794944,7.40646067 15.9356742,5.7491573 15.9356742,3.70533708 Z M9.8761236,3.70533708 C9.8761236,2.40421348 10.9345506,1.34691011 12.2345506,1.34691011 C13.5345506,1.34691011 14.5929775,2.40533708 14.5929775,3.70533708 C14.5929775,5.00646067 13.5345506,6.06376404 12.2345506,6.06376404 L9.8761236,6.06376404 L9.8761236,3.70533708 L9.8761236,3.70533708 Z M3.70533708,7.40646067 L7.40646067,7.40646067 L7.40646067,3.70533708 C7.40646067,1.66151685 5.7491573,0.00421348315 3.70533708,0.00421348315 C1.66151685,0.00421348315 0.00421348315,1.66151685 0.00421348315,3.70533708 C0.00533707865,5.7491573 1.66151685,7.40646067 3.70533708,7.40646067 L3.70533708,7.40646067 Z M3.70533708,1.34691011 C5.00646067,1.34691011 6.06376404,2.40533708 6.06376404,3.70533708 L6.06376404,6.06376404 L3.70533708,6.06376404 C2.40421348,6.06376404 1.34691011,5.00533708 1.34691011,3.70533708 C1.34691011,2.40533708 2.40533708,1.34691011 3.70533708,1.34691011 Z M12.2356742,8.53455056 L8.53455056,8.53455056 L8.53455056,12.2356742 C8.53455056,14.2794944 10.1918539,15.9367978 12.2356742,15.9367978 C14.2794944,15.9367978 15.9367978,14.2794944 15.9367978,12.2356742 C15.9367978,10.1918539 14.2794944,8.53455056 12.2356742,8.53455056 L12.2356742,8.53455056 Z M12.2356742,14.5941011 C10.9345506,14.5941011 9.87724719,13.5356742 9.87724719,12.2356742 L9.87724719,9.87724719 L12.2356742,9.87724719 C13.5367978,9.87724719 14.5941011,10.9356742 14.5941011,12.2356742 C14.5941011,13.5356742 13.5356742,14.5941011 12.2356742,14.5941011 Z" id="形状"></path>
            </g>
        </g>
    </g>
</svg>