<?xml version="1.0" encoding="UTF-8"?>
<svg width="18px" height="18px" viewBox="0 0 18 18" version="1.1" xmlns="http://www.w3.org/2000/svg" xmlns:xlink="http://www.w3.org/1999/xlink">
    <title>meiguo</title>
    <g id="页面-1" stroke="none" stroke-width="1" fill="none" fill-rule="evenodd">
        <g id="客户信息列表" transform="translate(-276.000000, -322.000000)" fill-rule="nonzero">
            <g id="编组-2备份" transform="translate(255.000000, 300.000000)">
                <g id="meiguo" transform="translate(21.000000, 22.000000)">
                    <path d="M0.266925466,6.86110248 C1.12003467,3.33774315 4.0155431,0.677804057 7.59847433,0.126025052 C11.1814056,-0.425753953 14.7430446,1.23977075 16.6166938,4.3432035 C18.4903431,7.44663625 18.3053888,11.3741083 16.1483819,14.2877277 C13.991375,17.201347 10.2889782,18.5247905 6.77375776,17.6387422 C4.47970241,17.0757267 2.50411659,15.6226991 1.2832606,13.6005252 C0.0624046039,11.5783514 -0.303292202,9.15337826 0.266925466,6.86110248" id="路径" fill="#F7F8F8"></path>
                    <path d="M17.148913,5.64246894 L10.2507764,5.64246894 L10.2507764,6.97290373 L17.5849379,6.97290373 C17.4734714,6.51903107 17.327711,6.07427498 17.148913,5.64246894 M15.3824534,2.88097826 L10.2507764,2.88097826 L10.2507764,4.24495342 L16.4445652,4.24495342 C16.1354001,3.75706686 15.7797018,3.30027537 15.3824534,2.88097826 M2.48059006,15.1791149 L15.348913,15.1791149 C15.7612213,14.7584446 16.1353613,14.3019937 16.4669255,13.8151398 L1.40729814,13.8151398 C1.7315822,14.3073961 2.10627615,14.7645227 2.52531056,15.1791149 M11.0445652,0.354270186 C10.7874224,0.287189441 10.5190994,0.23128882 10.2507764,0.186568323 L10.2507764,1.51700311 L13.7501553,1.51700311 C12.9196624,0.990808074 12.004251,0.612538892 11.0445652,0.398990683 M17.7526398,8.38159938 L10.2507764,8.38159938 L10.2507764,9.74557453 L17.7861801,9.74557453 C17.8252594,9.2917559 17.8252594,8.83541802 17.7861801,8.38159938 M0.691770186,12.4288043 L17.1265528,12.4288043 C17.3048264,12.0093878 17.4469576,11.5755134 17.5513975,11.1319099 L17.5513975,11.0648292 L0.244565217,11.0648292 C0.353059922,11.5318023 0.502713288,11.9882451 0.691770186,12.4288043 M6.77375776,17.6387422 C7.28859961,17.788555 7.81638887,17.8896211 8.35015528,17.9406056 L9.4681677,17.9406056 C10.959256,17.8515674 12.4026654,17.3819782 13.6607143,16.5766304 L4.13524845,16.5766304 C4.94793575,17.0906216 5.83919646,17.4682744 6.77375776,17.6946429" id="形状" fill="#E72D14"></path>
                    <path d="M9.56878882,9.19774845 L9.37872671,9.06358696 L9.1886646,9.19774845 L9.25574534,8.97414596 L9.06568323,8.83998447 L9.30046584,8.83998447 L9.37872671,8.60520186 L9.45698758,8.83998447 L9.69177019,8.83998447 L9.50170807,8.97414596 L9.56878882,9.19774845 Z M8.62965839,2.0201087 L8.69673913,2.28843168 L8.50667702,2.14309006 L8.31661491,2.28843168 L8.38369565,2.05364907 L8.19363354,1.91948758 L8.42841615,1.91948758 L8.50667702,1.68470497 L8.58493789,1.91948758 L8.8197205,1.91948758 L8.62965839,2.0201087 Z M8.62965839,4.07725155 L8.69673913,4.30085404 L8.50667702,4.15551242 L8.31661491,4.30085404 L8.38369565,4.07725155 L8.19363354,3.93190994 L8.42841615,3.93190994 L8.50667702,3.70830745 L8.58493789,3.93190994 L8.8197205,3.93190994 L8.62965839,4.07725155 Z M8.62965839,6.07849379 L8.70791925,6.3132764 L8.50667702,6.16793478 L8.31661491,6.3132764 L8.39487578,6.07849379 L8.19363354,5.9443323 L8.43959627,5.9443323 L8.50667702,5.72072981 L8.58493789,5.9443323 L8.79736025,5.9443323 L8.62965839,6.07849379 Z M8.62965839,8.31451863 L8.43959627,8.18035714 L8.24953416,8.31451863 L8.31661491,8.09091615 L8.16009317,7.87849379 L8.39487578,7.87849379 L8.47313665,7.6548913 L8.54021739,7.87849379 L8.78618012,7.87849379 L8.58493789,8.0238354 L8.62965839,8.31451863 Z M7.7128882,3.01513975 L7.79114907,3.23874224 L7.60108696,3.10458075 L7.39984472,3.23874224 L7.47810559,3.01513975 L7.28804348,2.88097826 L7.52282609,2.88097826 L7.60108696,2.64619565 L7.6681677,2.88097826 L7.91413043,2.88097826 L7.7128882,3.01513975 Z M7.7128882,5.00520186 L7.79114907,5.22880435 L7.60108696,5.09464286 L7.39984472,5.22880435 L7.47810559,5.00520186 L7.28804348,4.85986025 L7.52282609,4.85986025 L7.60108696,4.63625776 L7.6681677,4.85986025 L7.91413043,4.85986025 L7.7128882,5.00520186 Z M7.7128882,7.03998447 L7.79114907,7.26358696 L7.60108696,7.11824534 L7.39984472,7.26358696 L7.47810559,7.03998447 L7.28804348,6.89464286 L7.52282609,6.89464286 L7.60108696,6.67104037 L7.6681677,6.89464286 L7.91413043,6.89464286 L7.7128882,7.03998447 Z M7.79114907,9.19774845 L7.60108696,9.06358696 L7.39984472,9.19774845 L7.47810559,8.97414596 L7.28804348,8.83998447 L7.52282609,8.83998447 L7.60108696,8.60520186 L7.6681677,8.83998447 L7.91413043,8.83998447 L7.7128882,8.99650621 L7.79114907,9.19774845 Z M6.84083851,2.0201087 L6.91909938,2.28843168 L6.72903727,2.14309006 L6.52779503,2.28843168 L6.6060559,2.05364907 L6.41599379,1.91948758 L6.67313665,1.91948758 L6.75139752,1.68470497 L6.81847826,1.91948758 L7.06444099,1.91948758 L6.84083851,2.0201087 Z M6.84083851,4.07725155 L6.91909938,4.30085404 L6.72903727,4.15551242 L6.52779503,4.30085404 L6.6060559,4.07725155 L6.41599379,3.93190994 L6.67313665,3.93190994 L6.75139752,3.70830745 L6.81847826,3.93190994 L7.06444099,3.93190994 L6.84083851,4.07725155 Z M6.84083851,6.07849379 L6.90791925,6.3132764 L6.67313665,6.16793478 L6.48307453,6.3132764 L6.55015528,6.07849379 L6.36009317,5.9443323 L6.67313665,5.9443323 L6.67313665,5.72072981 L6.75139752,5.9443323 L6.98618012,5.9443323 L6.84083851,6.07849379 Z M6.84083851,8.31451863 L6.67313665,8.15799689 L6.47189441,8.29215839 L6.55015528,8.0685559 L6.38245342,7.87849379 L6.67313665,7.87849379 L6.67313665,7.6996118 L6.74021739,7.92321429 L6.975,7.92321429 L6.78493789,8.0685559 L6.84083851,8.31451863 Z M5.89052795,1.04743789 L5.96878882,1.2822205 L5.81226708,1.17041925 L5.62220497,1.31576087 L5.70046584,1.08097826 L5.55512422,0.890916149 L5.78990683,0.890916149 L5.85698758,0.667313665 L5.93524845,0.890916149 L6.17003106,0.890916149 L5.89052795,1.04743789 Z M5.89052795,3.0375 L5.96878882,3.26110248 L5.76754658,3.12694099 L5.57748447,3.26110248 L5.65574534,3.0375 L5.55512422,2.88097826 L5.78990683,2.88097826 L5.85698758,2.64619565 L5.93524845,2.88097826 L6.17003106,2.88097826 L5.89052795,3.0375 Z M5.89052795,5.02756211 L5.96878882,5.2511646 L5.76754658,5.11700311 L5.57748447,5.2511646 L5.65574534,5.02756211 L5.55512422,4.85986025 L5.78990683,4.85986025 L5.85698758,4.63625776 L5.93524845,4.85986025 L6.17003106,4.85986025 L5.89052795,5.02756211 Z M5.89052795,7.06234472 L5.96878882,7.2859472 L5.76754658,7.14060559 L5.57748447,7.2859472 L5.65574534,7.06234472 L5.55512422,6.89464286 L5.78990683,6.89464286 L5.85698758,6.67104037 L5.93524845,6.89464286 L6.17003106,6.89464286 L5.89052795,7.06234472 Z M5.96878882,9.2201087 L5.76754658,9.0859472 L5.57748447,9.2201087 L5.65574534,8.99650621 L5.55512422,8.83998447 L5.78990683,8.83998447 L5.85698758,8.60520186 L5.93524845,8.83998447 L6.17003106,8.83998447 L5.93524845,8.99650621 L5.96878882,9.2201087 Z M5.06319876,1.95302795 L5.14145963,2.17663043 L4.94021739,2.04246894 L4.75015528,2.17663043 L4.82841615,1.95302795 L4.62717391,1.80768634 L4.87313665,1.80768634 L4.94021739,1.58408385 L5.01847826,1.80768634 L5.25326087,1.80768634 L5.06319876,1.95302795 Z M5.06319876,3.99899068 L5.14145963,4.22259317 L4.94021739,4.08843168 L4.75015528,4.22259317 L4.82841615,3.99899068 L4.62717391,3.86482919 L4.87313665,3.86482919 L4.94021739,3.64122671 L5.01847826,3.86482919 L5.25326087,3.86482919 L5.06319876,3.99899068 Z M5.06319876,6.01141304 L5.14145963,6.23501553 L4.95139752,6.10085404 L4.75015528,6.23501553 L4.82841615,6.01141304 L4.61599379,5.86607143 L4.8507764,5.86607143 L4.92903727,5.64246894 L4.99611801,5.86607143 L5.24208075,5.86607143 L5.06319876,6.01141304 Z M5.06319876,8.24743789 L4.87313665,8.10209627 L4.68307453,8.24743789 L4.7613354,8.0238354 L4.59363354,7.87849379 L4.83959627,7.87849379 L4.90667702,7.6548913 L4.98493789,7.87849379 L5.2197205,7.87849379 L5.02965839,8.0238354 L5.06319876,8.24743789 Z M4.1576087,3.01513975 L4.22468944,3.23874224 L4.03462733,3.10458075 L3.84456522,3.23874224 L3.92282609,3.01513975 L3.72158385,2.88097826 L3.96754658,2.88097826 L4.03462733,2.64619565 L4.1128882,2.88097826 L4.34767081,2.88097826 L4.1576087,3.01513975 Z M4.1576087,5.00520186 L4.22468944,5.22880435 L4.03462733,5.09464286 L3.84456522,5.22880435 L3.92282609,5.00520186 L3.72158385,4.85986025 L3.96754658,4.85986025 L4.03462733,4.63625776 L4.1128882,4.85986025 L4.34767081,4.85986025 L4.1576087,5.00520186 Z M4.1576087,7.03998447 L4.22468944,7.26358696 L4.03462733,7.11824534 L3.84456522,7.26358696 L3.92282609,7.03998447 L3.72158385,6.89464286 L3.96754658,6.89464286 L4.03462733,6.67104037 L4.1128882,6.89464286 L4.34767081,6.89464286 L4.1576087,7.03998447 Z M4.22468944,9.19774845 L4.03462733,9.06358696 L3.84456522,9.19774845 L3.92282609,8.97414596 L3.72158385,8.83998447 L3.96754658,8.83998447 L4.03462733,8.60520186 L4.1128882,8.83998447 L4.34767081,8.83998447 L4.1576087,8.99650621 L4.22468944,9.19774845 Z M3.31909938,3.98781056 L3.38618012,4.21141304 L3.19611801,4.06607143 L3.0060559,4.21141304 L3.07313665,3.98781056 L2.88307453,3.84246894 L3.09549689,3.84246894 L3.16257764,3.61886646 L3.24083851,3.84246894 L3.47562112,3.84246894 L3.31909938,3.98781056 Z M3.31909938,5.9890528 L3.39736025,6.21265528 L3.20729814,6.07849379 L3.0060559,6.21265528 L3.08431677,5.9890528 L2.89425466,5.8548913 L3.12903727,5.8548913 L3.15139752,5.64246894 L3.21847826,5.87725155 L3.45326087,5.87725155 L3.31909938,5.9890528 Z M3.31909938,8.22507764 L3.12903727,8.09091615 L2.93897516,8.22507764 L3.0060559,8.00147516 L2.81599379,7.87849379 L3.0507764,7.87849379 L3.12903727,7.6548913 L3.20729814,7.87849379 L3.44208075,7.87849379 L3.25201863,8.0238354 L3.31909938,8.22507764 Z M7.52282609,0.890916149 L7.60108696,0.667313665 L7.6681677,0.890916149 L7.91413043,0.890916149 L7.7128882,1.02507764 L7.79114907,1.25986025 L7.60108696,1.17041925 L7.39984472,1.31576087 L7.47810559,1.08097826 L7.28804348,0.94681677 L7.52282609,0.890916149 Z M9.30046584,6.89464286 L9.37872671,6.67104037 L9.45698758,6.89464286 L9.69177019,6.89464286 L9.50170807,7.03998447 L9.56878882,7.26358696 L9.37872671,7.11824534 L9.1886646,7.26358696 L9.25574534,7.03998447 L9.06568323,6.89464286 L9.30046584,6.89464286 Z M9.30046584,4.85986025 L9.37872671,4.63625776 L9.45698758,4.85986025 L9.69177019,4.85986025 L9.50170807,5.00520186 L9.56878882,5.22880435 L9.37872671,5.09464286 L9.1886646,5.22880435 L9.25574534,5.00520186 L9.06568323,4.85986025 L9.30046584,4.85986025 Z M9.30046584,2.88097826 L9.37872671,2.64619565 L9.45698758,2.88097826 L9.69177019,2.88097826 L9.50170807,3.01513975 L9.56878882,3.23874224 L9.37872671,3.10458075 L9.1886646,3.23874224 L9.25574534,3.01513975 L9.06568323,2.88097826 L9.30046584,2.88097826 Z M9.30046584,0.890916149 L9.37872671,0.667313665 L9.45698758,0.890916149 L9.69177019,0.890916149 L9.50170807,1.02507764 L9.56878882,1.25986025 L9.37872671,1.17041925 L9.1886646,1.31576087 L9.25574534,1.08097826 L9.06568323,0.94681677 L9.30046584,0.890916149 Z M2.37996894,5.00520186 L2.44704969,5.22880435 L2.25698758,5.09464286 L2.06692547,5.22880435 L2.13400621,5.00520186 L1.9439441,4.85986025 L2.20108696,4.85986025 L2.27934783,4.63625776 L2.34642857,4.85986025 L2.5923913,4.85986025 L2.37996894,5.00520186 Z M2.37996894,7.03998447 L2.44704969,7.26358696 L2.25698758,7.11824534 L2.06692547,7.26358696 L2.13400621,7.03998447 L1.9439441,6.89464286 L2.20108696,6.89464286 L2.27934783,6.67104037 L2.34642857,6.89464286 L2.5923913,6.89464286 L2.37996894,7.03998447 Z M2.44704969,9.19774845 L2.25698758,9.06358696 L2.06692547,9.19774845 L2.13400621,8.97414596 L1.9439441,8.83998447 L2.20108696,8.83998447 L2.27934783,8.60520186 L2.34642857,8.83998447 L2.5923913,8.83998447 L2.37996894,8.99650621 L2.44704969,9.19774845 Z M1.48555901,5.95551242 L1.55263975,6.17911491 L1.36257764,6.04495342 L1.17251553,6.17911491 L1.23959627,5.95551242 L1.08307453,5.82135093 L1.32903727,5.82135093 L1.36257764,5.64246894 L1.44083851,5.87725155 L1.67562112,5.87725155 L1.48555901,5.95551242 Z M1.54145963,8.19153727 L1.35139752,8.04619565 L1.15015528,8.19153727 L1.22841615,7.96793478 L1.08307453,7.80023292 L1.31785714,7.80023292 L1.39611801,7.57663043 L1.46319876,7.80023292 L1.69798137,7.80023292 L1.50791925,7.94557453 L1.54145963,8.19153727 Z M0.669409938,9.2201087 L0.479347826,9.0859472 L0.27810559,9.2201087 L0.35636646,8.99650621 L0.166304348,8.86234472 L0.401086957,8.86234472 L0.479347826,8.62756211 L0.546428571,8.86234472 L0.78121118,8.86234472 L0.591149068,8.99650621 L0.669409938,9.2201087 Z M10.2507764,0.186568323 L9.4234472,0.0524068323 L7.79114907,0.15302795 C6.15363545,0.361738881 4.60582634,1.01955775 3.31909938,2.05364907 L3.31909938,2.15427019 L3.31909938,2.09836957 C3.01852278,2.3357044 2.73806596,2.5974641 2.48059006,2.88097826 L2.61475155,2.88097826 L2.42468944,3.01513975 L2.49177019,3.23874224 L2.30170807,3.10458075 L2.20108696,3.16048137 C2.02220497,3.3617236 1.85450311,3.58532609 1.68680124,3.80892857 L1.56381988,3.97663043 L1.56381988,4.13315217 L1.45201863,4.06607143 C0.897420112,4.92172466 0.496374887,5.86758604 0.266925466,6.86110248 L0.412267081,6.86110248 L0.49052795,6.6375 L0.557608696,6.86110248 L0.792391304,6.86110248 L0.602329193,7.0064441 L0.680590062,7.23004658 L0.49052795,7.08470497 L0.289285714,7.23004658 L0.367546584,7.0064441 L0.255745342,6.91700311 C0.0361620065,7.81997075 -0.0355760871,8.75256596 0.0433229814,9.67849379 L10.2507764,9.67849379 L10.2507764,0.186568323 Z" id="形状" fill="#073470"></path>
                </g>
            </g>
        </g>
    </g>
</svg>