<?xml version="1.0" encoding="UTF-8"?>
<svg width="18px" height="18px" viewBox="0 0 18 18" version="1.1" xmlns="http://www.w3.org/2000/svg" xmlns:xlink="http://www.w3.org/1999/xlink">
    <title>zhongguo</title>
    <g id="页面-1" stroke="none" stroke-width="1" fill="none" fill-rule="evenodd">
        <g id="客户信息列表" transform="translate(-276.000000, -216.000000)" fill-rule="nonzero">
            <g id="编组-2" transform="translate(255.000000, 194.000000)">
                <g id="zhongguo" transform="translate(21.000000, 22.000000)">
                    <path d="M0.266925466,6.86110248 C1.12003467,3.33774315 4.0155431,0.677804057 7.59847433,0.126025052 C11.1814056,-0.425753953 14.7430446,1.23977075 16.6166938,4.3432035 C18.4903431,7.44663625 18.3053888,11.3741083 16.1483819,14.2877277 C13.991375,17.201347 10.2889782,18.5247905 6.77375776,17.6387422 C4.47970241,17.0757267 2.50411659,15.6226991 1.2832606,13.6005252 C0.0624046039,11.5783514 -0.303292202,9.15337826 0.266925466,6.86110248" id="路径" fill="#E72D14"></path>
                    <path d="M9.4681677,8.70582298 L9.05450311,9.20892857 L8.4507764,8.99650621 L8.79736025,9.5443323 L8.38369565,10.0474379 L9.00978261,9.89091615 L9.36754658,10.4387422 L9.36754658,9.79029503 L10.0048137,9.62259317 L9.40108696,9.38781056 L9.4681677,8.70582298 Z M11.8830745,7.34184783 L11.2346273,7.34184783 L11.0333851,6.76048137 L10.8321429,7.38656832 L10.1836957,7.38656832 L10.7091615,7.76669255 L10.5079193,8.3927795 L11.0333851,8.00147516 L11.5588509,8.3927795 L11.3576087,7.76669255 L11.8830745,7.34184783 Z M10.8209627,4.94930124 L10.9215839,5.64246894 L11.2234472,5.06110248 L11.8718944,5.1617236 L11.4023292,4.70333851 L11.7041925,4.12197205 L11.1451863,4.36793478 L10.6868012,3.90954969 L10.7874224,4.55799689 L10.2060559,4.84868012 L10.8209627,4.94930124 Z M9.47934783,1.96420807 L9.06568323,2.46731366 L8.4507764,2.22135093 L8.80854037,2.78035714 L8.38369565,3.27228261 L9.02096273,3.11576087 L9.36754658,3.66358696 L9.36754658,3.01513975 L10.0271739,2.85861801 L9.4234472,2.61265528 L9.47934783,1.96420807 Z M4.92903727,4.8375 L4.31413043,2.94805901 L3.6992236,4.8375 L1.72034161,4.8375 L3.31909938,6.00023292 L2.70419255,7.87849379 L4.31413043,6.76048137 L5.9128882,7.87849379 L5.29798137,6.00023292 L6.90791925,4.8822205 L4.92903727,4.8375 Z" id="形状" fill="#FFD700"></path>
                </g>
            </g>
        </g>
    </g>
</svg>