<?xml version="1.0" encoding="UTF-8"?>
<svg width="14px" height="14px" viewBox="0 0 14 14" version="1.1" xmlns="http://www.w3.org/2000/svg" xmlns:xlink="http://www.w3.org/1999/xlink">
    <title>shanchu-2</title>
    <g id="渠道端功能原型-HX" stroke="none" stroke-width="1" fill="none" fill-rule="evenodd">
        <g id="画板" transform="translate(-318.000000, -501.000000)" fill="#9B9B9B" fill-rule="nonzero">
            <g id="shanchu-2" transform="translate(318.000000, 501.000000)">
                <path d="M11.7143555,5.39941406 C11.3833008,5.39941406 11.1137695,5.66748047 11.1137695,6 L11.1137695,12 C11.1137695,12.3310547 10.8442383,12.6005859 10.5131836,12.6005859 L3.31347656,12.6005859 C2.98242188,12.6005859 2.71289062,12.3310547 2.71289062,12 L2.71289062,6 C2.71289062,5.66894531 2.44482422,5.39941406 2.11230469,5.39941406 C1.77978516,5.39941406 1.51171875,5.66748047 1.51171875,6 L1.51171875,12 C1.51171875,12.9931641 2.31884766,13.800293 3.31201172,13.800293 L10.5117188,13.800293 C11.5048828,13.800293 12.3120177,12.9931641 12.3120177,12 L12.3120177,6 C12.3134766,5.66748047 12.0454102,5.39941406 11.7143555,5.39941406 Z M13.2143555,2.69970703 L10.5146484,2.69970703 L10.5146484,1.5 C10.5146484,0.672363281 9.84082031,0 9.01464844,0 L4.81347656,0 C3.98583984,0 3.31347656,0.672363281 3.31347656,1.5 L3.31347656,2.69970703 L0.613769531,2.69970703 C0.284179688,2.69970703 0.0131835938,2.96923828 0.0131835938,3.30029297 C0.0131835938,3.62988281 0.282714844,3.90087891 0.613769531,3.90087891 L13.2128906,3.90087891 C13.5424805,3.90087891 13.8134766,3.63134766 13.8134766,3.30029297 C13.8134766,2.96923828 13.5439453,2.69970703 13.2143555,2.69970703 Z M4.51464844,2.69970703 L4.51464844,1.5 C4.51464844,1.33447266 4.64941406,1.19970703 4.81494141,1.19970703 L9.01464844,1.19970703 C9.18017578,1.19970703 9.31494141,1.33447266 9.31494141,1.5 L9.31494141,2.69970703 L4.51464844,2.69970703 L4.51464844,2.69970703 Z" id="形状"></path>
                <path d="M6.01464844,10.199707 L6.01464844,6.59912109 C6.01464844,6.26953125 5.74511719,5.99853516 5.4140625,5.99853516 C5.08300781,5.99853516 4.81347656,6.26806641 4.81347656,6.59912109 L4.81347656,10.199707 C4.81347656,10.5292969 5.08300781,10.800293 5.4140625,10.800293 C5.74511719,10.800293 6.01464844,10.5292969 6.01464844,10.199707 Z M9.01464844,10.199707 L9.01464844,6.59912109 C9.01464844,6.26953125 8.74511719,5.99853516 8.4140625,5.99853516 C8.08447266,5.99853516 7.81347656,6.26806641 7.81347656,6.59912109 L7.81347656,10.199707 C7.81347656,10.5292969 8.08300781,10.800293 8.4140625,10.800293 C8.74365234,10.7988281 9.01464844,10.5292969 9.01464844,10.199707 Z" id="形状"></path>
            </g>
        </g>
    </g>
</svg>