<?xml version="1.0" encoding="UTF-8"?>
<svg width="14px" height="14px" viewBox="0 0 14 14" version="1.1" xmlns="http://www.w3.org/2000/svg" xmlns:xlink="http://www.w3.org/1999/xlink">
    <title>bianji</title>
    <g id="渠道端功能原型-HX" stroke="none" stroke-width="1" fill="none" fill-rule="evenodd">
        <g id="画板" transform="translate(-399.000000, -501.000000)" fill="#9B9B9B" fill-rule="nonzero">
            <g id="bianji" transform="translate(399.000000, 501.000000)">
                <path d="M4.64501953,7.03271484 L3.94628906,9.12890625 C3.87435836,9.34444434 3.93051672,9.58212465 4.09130859,9.74267578 C4.20556641,9.85693359 4.359375,9.91845703 4.51611328,9.91845703 C4.57910156,9.91845703 4.64355469,9.90820313 4.70507812,9.88769531 L6.80126953,9.18896484 C7.11474609,9.08496094 7.40185547,8.90625 7.63476562,8.67333984 L13.3417969,2.96630859 C13.8925781,2.41552734 13.9863281,1.67724609 13.5585938,1.24951172 L12.5830078,0.275390625 C12.3457031,0.0380859375 11.9956055,-0.0454101562 11.6235352,0.046875 C11.3554688,0.114257813 11.0859375,0.272460938 10.8662109,0.4921875 L5.16064453,6.19921875 C4.92773438,6.43212891 4.74902344,6.72070313 4.64501953,7.03271484 Z M5.78320312,7.41210938 C5.82861328,7.27587891 5.90625,7.1484375 6.00878906,7.04736328 L11.7158203,1.34033203 C11.765625,1.29052734 11.8125,1.25830078 11.8491211,1.23779297 L12.5947266,1.98339844 C12.5742187,2.02001953 12.5419922,2.06689453 12.4921875,2.11669922 L6.78662109,7.82519531 C6.68554688,7.92626953 6.55810547,8.00537109 6.421875,8.05078125 L5.46386719,8.37011719 L5.78320312,7.41210938 Z" id="形状"></path>
                <path d="M13.2011719,6.31933594 C12.8701172,6.31933594 12.6005859,6.58740234 12.6005859,6.91992188 L12.6005859,12.0205078 C12.6005859,12.3515625 12.3310547,12.6210938 12,12.6210938 L1.80029297,12.6210938 C1.46923828,12.6210938 1.19970703,12.3515625 1.19970703,12.0205078 L1.19970703,1.81933594 C1.19970703,1.48828125 1.46923828,1.21875 1.80029297,1.21875 L6.90087891,1.21875 C7.23193359,1.21875 7.50146484,0.950683594 7.50146484,0.618164063 C7.50146484,0.285644531 7.23339844,0.017578125 6.90087891,0.017578125 L1.80029297,0.017578125 C0.807128906,0.017578125 0,0.824707031 0,1.81787109 L0,12.0175781 C0,13.0107422 0.807128906,13.8178711 1.80029297,13.8178711 L12,13.8178711 C12.9931641,13.8178711 13.800293,13.0107422 13.800293,12.0175781 L13.800293,6.91845703 C13.800293,6.58740234 13.5322266,6.31933594 13.2011719,6.31933594 Z" id="路径"></path>
            </g>
        </g>
    </g>
</svg>