<?xml version="1.0" encoding="UTF-8"?>
<svg width="15px" height="14px" viewBox="0 0 15 14" version="1.1" xmlns="http://www.w3.org/2000/svg" xmlns:xlink="http://www.w3.org/1999/xlink">
    <title>文件夹</title>
    <g id="渠道端功能原型-HX" stroke="none" stroke-width="1" fill="none" fill-rule="evenodd">
        <g id="画板" transform="translate(-193.000000, -501.000000)" fill-rule="nonzero">
            <g id="文件夹" transform="translate(193.000000, 501.000000)">
                <path d="M14.1934783,14 L1.80652174,14 C1.36352657,14 1,13.6335093 1,13.1831026 L1,2 L14.1934783,2 C14.6364734,2 15,2.36649065 15,2.81689739 L15,13.1831026 C15,13.6335093 14.6381643,14 14.1934783,14 Z" id="路径" fill="#F9AE06"></path>
                <path d="M14.1631445,14 L0.835044077,14 C0.376766091,14 0,13.6579078 0,13.2381425 L0,4.76185754 C0,4.34374484 0.374954716,4 0.835044077,4 L14.1649559,4 C14.6232339,4 15,4.34209222 15,4.76185754 L15,13.2381425 C14.9981886,13.6579078 14.6232339,14 14.1631445,14 Z" id="路径" fill="#FECC45"></path>
                <path d="M6,2 L1,2 L1,0.99895288 C1,0.448167539 1.33594976,0 1.74882261,0 L3.9733124,0 C4.1522763,0 4.32496075,0.0858638743 4.4599686,0.240837696 L6,2 Z" id="路径" fill="#F9AE06"></path>
            </g>
        </g>
    </g>
</svg>