<?xml version="1.0" encoding="UTF-8"?>
<svg width="22px" height="10px" viewBox="0 0 22 10" version="1.1" xmlns="http://www.w3.org/2000/svg" xmlns:xlink="http://www.w3.org/1999/xlink">
    <title>new</title>
    <g id="页面-1" stroke="none" stroke-width="1" fill="none" fill-rule="evenodd">
        <g id="面板-首页" transform="translate(-1094.000000, -706.000000)">
            <g id="编组-5备份-5" transform="translate(955.000000, 672.000000)">
                <g id="编组-21" transform="translate(27.000000, 28.000000)">
                    <g id="ChartSymbols/标题&amp;单位/大标题" transform="translate(40.000000, 6.000000)">
                        <g id="new" transform="translate(72.000000, 0.000000)">
                            <rect id="矩形" fill="#FFFFFF" x="3.91111111" y="1.95555556" width="14.6666667" height="6.35555556"></rect>
                            <path d="M5.1642206,0 L16.7837169,0 C19.4088592,0 21.5175891,2.21217334 21.5175891,4.96559673 C21.5175891,7.71902012 19.4088689,9.93119346 16.7837169,9.93119346 L0,9.93119346 L0,5.41664166 C0,2.43728363 2.32389927,0 5.1642206,0 Z M7.96150999,7.67432974 L7.96150999,2.5283131 L7.31598241,2.5283131 L7.31598241,6.45527575 L4.94905121,2.5283131 L4.30352363,2.5283131 L4.30352363,7.67432974 L4.94905121,7.67432974 L4.94905121,3.74654273 L7.31598241,7.67432974 L7.96150999,7.67432974 L7.96150999,7.67432974 Z M11.7916435,5.28173649 L11.7916435,4.73965917 L9.7689872,4.73965917 L9.7689872,3.0703943 L12.0928865,3.0703943 L12.0928865,2.52914426 L9.12345962,2.52914426 L9.12345962,7.6751609 L12.1359184,7.6751609 L12.1359184,7.13308358 L9.7689872,7.13308358 L9.7689872,5.28174037 L11.7916435,5.28174037 L11.7916435,5.28173649 Z M13.9003637,5.91319455 L13.1687654,2.57300638 L12.4371672,2.57300638 L13.5991168,7.71902302 L14.2016096,7.71902302 L15.1914217,4.15290021 L15.2774921,3.70185818 L15.3635625,4.15290021 L16.3533747,7.71985709 L16.9558674,7.71985709 L18.160849,2.57300638 L17.4292507,2.57300638 L16.7406883,5.91320425 L16.6546179,6.5910082 L16.5255124,5.91320425 L15.6648087,2.57300638 L15.0192811,2.57300638 L14.1585773,5.91320425 L14.0294718,6.5910082 L13.9003663,5.91320425 L13.9003637,5.91319455 Z" id="形状" fill="#FB560A" fill-rule="nonzero"></path>
                        </g>
                    </g>
                </g>
            </g>
        </g>
    </g>
</svg>