<?xml version="1.0" encoding="UTF-8"?>
<svg width="14px" height="14px" viewBox="0 0 14 14" version="1.1" xmlns="http://www.w3.org/2000/svg" xmlns:xlink="http://www.w3.org/1999/xlink">
    <title>daochu</title>
    <g id="渠道端功能原型-HX" stroke="none" stroke-width="1" fill="none" fill-rule="evenodd">
        <g id="画板" transform="translate(-472.000000, -502.000000)" fill="#9B9B9B" fill-rule="nonzero">
            <g id="daochu" transform="translate(472.000000, 502.000000)">
                <path d="M13.2143555,7.80615234 C12.8833008,7.80615234 12.6137695,8.07421875 12.6137695,8.40673828 L12.6137695,11.4067383 C12.6137695,11.737793 12.3442383,12.0073242 12.0131836,12.0073242 L1.81347656,12.0073242 C1.48242188,12.0073242 1.21289062,11.737793 1.21289062,11.4067383 L1.21289062,8.40673828 C1.21289062,8.07568359 0.944824219,7.80615234 0.612304688,7.80615234 C0.279785156,7.80615234 0.01171875,8.07421875 0.01171875,8.40673828 L0.01171875,11.4067383 C0.01171875,12.3999023 0.818847656,13.2070312 1.81201172,13.2070312 L12.0117188,13.2070312 C13.0048828,13.2070312 13.8120177,12.3999023 13.8120177,11.4067383 L13.8120177,8.40673828 C13.8134766,8.07568359 13.5454102,7.80615234 13.2143555,7.80615234 Z" id="路径"></path>
                <path d="M3.94482422,4.42382813 L6.31347656,2.05517578 L6.31347656,9.60644531 C6.31347656,9.93603516 6.58300781,10.2070312 6.9140625,10.2070312 C7.24365234,10.2070312 7.51464844,9.9375 7.51464844,9.60644531 L7.51464844,2.05517578 L9.88330078,4.42382813 C10.1162109,4.65673828 10.4985352,4.65673828 10.7314453,4.42382813 C10.9643555,4.19091797 10.9643555,3.80859375 10.7314453,3.57568359 L7.34619141,0.188964844 C7.34326172,0.186035156 7.34179688,0.183105469 7.34033203,0.181640625 C7.25683594,0.0981445312 7.15429687,0.0454101563 7.04589844,0.0219726562 C7.04296875,0.0205078125 7.03857422,0.0190429687 7.03564453,0.0190429687 C6.99609375,0.01171875 6.95654297,0.00732421875 6.91699219,0.00732421875 C6.87744141,0.00732421875 6.83642578,0.01171875 6.79833984,0.0190429687 C6.79394531,0.0205078125 6.79101562,0.0219726562 6.78808594,0.0219726562 C6.6796875,0.0454101563 6.57714844,0.0981445312 6.49365234,0.181640625 C6.49072266,0.184570313 6.48925781,0.1875 6.48779297,0.188964844 L3.09667969,3.57568359 C2.86376953,3.80859375 2.86376953,4.19091797 3.09667969,4.42382813 C3.32958984,4.65673828 3.71191406,4.65673828 3.94482422,4.42382813 Z" id="路径"></path>
            </g>
        </g>
    </g>
</svg>